<svg width="30" height="30" viewBox="0 0 30 30" fill="none" xmlns="http://www.w3.org/2000/svg">
<path d="M15 3.0135C10.857 3.0135 7.5 6.357 7.5 10.4985C7.5 17.6595 15 26.9985 15 26.9985C15 26.9985 22.5 17.658 22.5 10.4985C22.5 6.3585 19.143 3.0135 15 3.0135ZM15 14.64C13.9259 14.64 12.8957 14.2133 12.1362 13.4538C11.3767 12.6943 10.95 11.6641 10.95 10.59C10.95 9.51588 11.3767 8.48574 12.1362 7.72622C12.8957 6.9667 13.9259 6.54 15 6.54C16.0741 6.54 17.1043 6.9667 17.8638 7.72622C18.6233 8.48574 19.05 9.51588 19.05 10.59C19.05 11.6641 18.6233 12.6943 17.8638 13.4538C17.1043 14.2133 16.0741 14.64 15 14.64Z" fill="#FFDA8F"/>
</svg>
