<svg width="25" height="25" viewBox="0 0 25 25" fill="none" xmlns="http://www.w3.org/2000/svg">
<path d="M20.3046 21.6772C19.767 21.6772 19.329 21.2391 19.329 20.7016V19.726H20.3046C21.8596 19.726 22.2557 19.1973 22.2557 19.1973V20.7016C22.2557 21.2391 21.8177 21.6772 21.2802 21.6772H20.3046Z" fill="#FB8E30"/>
<path d="M3.71987 21.6772C3.18233 21.6772 2.74429 21.2391 2.74429 20.7016V19.1973C2.74429 19.1973 3.14038 19.726 4.69544 19.726H5.67101V20.7016C5.67101 21.2391 5.23298 21.6772 4.69544 21.6772H3.71987Z" fill="#FB8E30"/>
<path d="M25 11.4336C25 10.1878 23.9893 9.17712 22.7435 9.17712C21.7757 9.17712 20.9563 9.78978 20.6363 10.6463L19.5661 13.0433C19.4861 12.9936 16.2501 11.977 12.5605 11.977C8.87087 11.977 5.5071 12.9984 5.42515 13.0492L4.41154 10.8005C4.1374 9.86588 3.28085 9.1781 2.2565 9.1781C1.01069 9.1781 0 10.1878 0 11.4346C0 12.4716 0.704363 13.336 1.6575 13.6004L2.07504 17.1895C2.516 18.7124 4.69543 18.7504 4.69543 18.7504H20.3046C20.3046 18.7504 22.484 18.7124 22.925 17.1875L23.3425 13.5984C24.2947 13.335 25 12.4707 25 11.4336Z" fill="#FB8E30"/>
<path d="M2.2565 8.00647C3.73156 8.00647 5.05541 8.98009 5.50905 10.3849L6.00269 11.4824C6.95778 11.1381 10.3918 10.8064 12.5615 10.8064C14.6716 10.8064 18.0569 11.1146 18.9934 11.4561L19.5544 10.1986C20.0626 8.88546 21.3397 8.00647 22.7445 8.00647C22.8479 8.00647 22.9464 8.02794 23.0489 8.03672C23.0489 8.03086 23.0498 8.02403 23.0498 8.01818C23.0498 5.42511 20.9485 3.32275 18.3544 3.32275C18.0286 3.32275 6.97339 3.32275 6.64754 3.32275C4.05448 3.32275 1.95212 5.42413 1.95212 8.01818C1.95212 8.02403 1.95309 8.03086 1.95309 8.03672C2.05455 8.02891 2.15309 8.00647 2.2565 8.00647Z" fill="#FB8E30"/>
</svg>
