<svg width="25" height="25" viewBox="0 0 25 25" fill="none" xmlns="http://www.w3.org/2000/svg">
<g clip-path="url(#clip0_18:198)">
<path d="M19.1964 13.3928C15.9911 13.3928 13.3928 15.9912 13.3928 19.1964C13.3928 22.4016 15.9911 25 19.1964 25C22.4016 25 24.9999 22.4016 24.9999 19.1964C24.9962 15.9927 22.4001 13.3965 19.1964 13.3928ZM23.6606 19.6428H19.6428V23.2143H18.7499V19.6428H14.7321V18.75H18.7499V14.7321H19.6428V18.75H23.6606V19.6428Z" fill="#FB8E30"/>
<path d="M14.7322 0H24.5536C24.8001 0 25 0.19989 25 0.446429V10.2679C25 10.5144 24.8001 10.7143 24.5536 10.7143H14.7322C14.4856 10.7143 14.2857 10.5144 14.2857 10.2679V0.446429C14.2857 0.19989 14.4856 0 14.7322 0Z" fill="#FB8E30"/>
<path d="M0.446429 0H10.2679C10.5144 0 10.7143 0.19989 10.7143 0.446429V10.2679C10.7143 10.5144 10.5144 10.7143 10.2679 10.7143H0.446429C0.19989 10.7143 0 10.5144 0 10.2679V0.446429C0 0.19989 0.19989 0 0.446429 0Z" fill="#FB8E30"/>
<path d="M0.446429 14.2858H10.2679C10.5144 14.2858 10.7143 14.4857 10.7143 14.7322V24.5536C10.7143 24.8002 10.5144 25.0001 10.2679 25.0001H0.446429C0.19989 25.0001 0 24.8002 0 24.5536V14.7322C0 14.4857 0.19989 14.2858 0.446429 14.2858Z" fill="#FB8E30"/>
</g>
<defs>
<clipPath id="clip0_18:198">
<rect width="25" height="25" fill="white"/>
</clipPath>
</defs>
</svg>
