<svg width="25" height="25" viewBox="0 0 25 25" fill="none" xmlns="http://www.w3.org/2000/svg">
<g clip-path="url(#clip0_18:231)">
<path d="M12.5007 1.95764C6.67803 1.95764 1.9585 6.67717 1.9585 12.4999C1.9585 16.6953 4.41555 20.3071 7.96322 22.0039L8.29319 15.628C8.29319 15.628 7.67252 15.4243 7.53666 15.3579C6.22021 14.778 5.26387 13.0706 5.26387 10.8546C5.26387 8.43653 7.13919 6.35371 8.95227 6.3365C8.95456 6.3365 8.95457 6.3365 8.95608 6.3365C8.95686 6.3365 8.95837 6.3365 8.9591 6.3365C10.7726 6.35364 12.648 8.43647 12.648 10.8546C12.648 13.0706 11.6904 14.7773 10.3767 15.3579C10.3664 15.3625 9.6141 15.6356 9.6141 15.6356L9.98261 22.7249C10.7913 22.9239 11.6321 23.0407 12.5022 23.0407C13.6756 23.0407 14.7994 22.8408 15.8538 22.4876L16.1803 16.1697C15.3198 15.9804 14.5858 15.4326 14.1257 14.7453C13.5558 13.8916 14.5644 6.33578 14.5644 6.33578H15.2206V13.4261H15.8722V6.33657H16.5848V13.4277H17.2333V6.33657H17.9726V13.4277H18.6233V6.33657H19.1268C19.1268 6.33657 20.1355 13.8924 19.5648 14.7461C19.1093 15.4266 18.3822 15.9729 17.5324 16.1667C17.5171 16.172 17.5033 16.1773 17.5033 16.1773L17.7871 21.6118C20.9274 19.786 23.0438 16.3941 23.0438 12.5C23.0422 6.67724 18.3227 1.95764 12.5007 1.95764Z" fill="#FB8E30"/>
<path d="M6.80703 9.78277C6.84479 9.62905 6.89554 9.48294 6.89784 9.48031C6.91426 9.42273 6.88373 9.36396 6.82115 9.32659C6.76165 9.29455 6.68916 9.31096 6.65561 9.36245C6.65561 9.36245 6.58351 9.47729 6.47897 9.64704C6.39393 9.79314 6.26805 10.0266 6.18216 10.3173C6.10776 10.5721 6.01892 10.9108 5.97886 11.29C5.96173 11.4891 5.95785 11.6688 5.96396 11.8538C5.97886 12.0647 6.01084 12.2451 6.07191 12.4515C6.27902 13.0401 6.43852 13.6101 7.01414 14.1723C7.19609 14.3593 7.38304 14.4867 7.51805 14.5805L7.56572 14.6141C7.59474 14.6332 7.62259 14.6508 7.65003 14.6668C7.76337 14.7263 7.83921 14.7476 7.853 14.7506C7.90941 14.7659 7.96746 14.7384 7.99143 14.6927C8.01395 14.6446 7.99753 14.5843 7.95065 14.5462C7.95065 14.5462 7.88498 14.489 7.80073 14.3822C7.74315 14.3173 7.68057 14.2235 7.60775 14.1175C7.55627 14.0427 7.49559 13.958 7.43912 13.8756C7.15873 13.4476 6.99706 12.8502 6.77347 12.2383C6.72961 12.1055 6.69376 11.9335 6.68036 11.7874C6.6625 11.6188 6.6541 11.4563 6.6541 11.3056C6.64759 10.9554 6.66322 10.6548 6.69376 10.411C6.72882 10.136 6.75627 9.92966 6.80703 9.78277Z" fill="#FB8E30"/>
<path d="M12.5008 0C5.60877 0 0 5.60758 0 12.5C0 19.3908 5.60877 25 12.5008 25C19.3924 25 25.0001 19.3908 25.0001 12.5C25 5.60758 19.3924 0 12.5008 0ZM12.5008 24.0677C6.12181 24.0677 0.931916 18.8782 0.931916 12.5C0.931916 6.12102 6.12181 0.931128 12.5008 0.931128C18.879 0.931128 24.0693 6.12102 24.0693 12.5C24.0692 18.8782 18.8789 24.0677 12.5008 24.0677Z" fill="#FB8E30"/>
</g>
<defs>
<clipPath id="clip0_18:231">
<rect width="25" height="25" fill="white"/>
</clipPath>
</defs>
</svg>
