<svg width="50" height="50" viewBox="0 0 50 50" fill="none" xmlns="http://www.w3.org/2000/svg">
<circle cx="25" cy="25" r="25" fill="#FFDA8F"/>
<g clip-path="url(#clip0_18:313)">
<path d="M36.6198 26.972C37.3657 20.6938 36.2615 16.7303 34.2698 14.9376L34.2709 14.9365C31.0563 11.8751 20.2 11.422 16.3542 15.074C14.6271 16.8605 14.0188 19.4824 13.9521 22.7282C13.8854 25.9751 13.8063 32.0574 19.474 33.7074H19.4792L19.474 36.2272C19.474 36.2272 19.4354 37.248 20.0875 37.4532C20.8334 37.6949 21.1709 37.2209 23.4906 34.4501C27.3698 34.7865 30.349 34.0157 30.6875 33.9032C31.4709 33.6407 35.9032 33.0543 36.6198 26.972ZM23.8729 32.6772C23.8729 32.6772 21.4177 35.7386 20.6542 36.5334C20.4042 36.7918 20.1302 36.7678 20.1344 36.2553C20.1344 35.9188 20.1531 32.072 20.1531 32.072C15.3479 30.6949 15.6313 25.5157 15.6834 22.8063C15.7354 20.0959 16.2313 17.8761 17.6938 16.3813C21.0677 13.2178 30.5854 13.9251 33.0104 16.2043C35.975 18.8324 34.9198 26.2574 34.9261 26.5105C34.3167 31.5876 30.725 31.9095 30.0646 32.1293C29.7823 32.223 27.1625 32.897 23.8729 32.6772Z" fill="#1E1E1E"/>
<path d="M25.2313 16.9761C24.8302 16.9761 24.8302 17.6011 25.2313 17.6063C28.3427 17.6302 30.9052 19.799 30.9333 23.7771C30.9333 24.1969 31.5479 24.1917 31.5427 23.7719H31.5417C31.5083 19.4854 28.7104 17 25.2313 16.9761Z" fill="#1E1E1E"/>
<path d="M29.3239 23.1177C29.3146 23.5323 29.9281 23.5521 29.9333 23.1323C29.9844 20.7688 28.5271 18.8219 25.7885 18.6167C25.3875 18.5875 25.3458 19.2177 25.7458 19.2469C28.1208 19.4271 29.3719 21.048 29.3239 23.1177Z" fill="#1E1E1E"/>
<path d="M28.6677 25.8062C28.1531 25.5083 27.6292 25.6937 27.4125 25.9864L26.9594 26.5729C26.7292 26.8708 26.299 26.8312 26.299 26.8312C23.1594 26.001 22.3198 22.7156 22.3198 22.7156C22.3198 22.7156 22.2812 22.2708 22.5687 22.0322L23.1354 21.5635C23.4187 21.3385 23.5979 20.7968 23.3094 20.2645C22.5385 18.8718 22.0208 18.3916 21.7573 18.0229C21.4802 17.676 21.0635 17.5979 20.6302 17.8322H20.6208C19.7198 18.3593 18.7333 19.3458 19.049 20.3614C19.5875 21.4322 20.5771 24.8458 23.7312 27.4249C25.2135 28.6447 27.5594 29.8947 28.5552 30.1833L28.5646 30.1979C29.5458 30.5249 30.5 29.4999 31.0094 28.5718V28.5645C31.2354 28.1156 31.1604 27.6906 30.8302 27.4124C30.2448 26.8416 29.3615 26.2114 28.6677 25.8062Z" fill="#1E1E1E"/>
<path d="M26.2177 20.9417C27.2188 21 27.7042 21.5229 27.7563 22.5969C27.775 23.0167 28.3844 22.9875 28.3656 22.5677C28.299 21.1656 27.5677 20.3844 26.2511 20.3115C25.85 20.2875 25.8125 20.9177 26.2177 20.9417Z" fill="#1E1E1E"/>
</g>
<defs>
<clipPath id="clip0_18:313">
<rect width="25" height="25" fill="white" transform="translate(12.5 12.5)"/>
</clipPath>
</defs>
</svg>
