<svg width="50" height="50" viewBox="0 0 50 50" fill="none" xmlns="http://www.w3.org/2000/svg">
<circle cx="25" cy="25" r="25" fill="#FFDA8F"/>
<g clip-path="url(#clip0_18:312)">
<path d="M30.7364 27.4033L30.7271 27.4814C28.4364 26.3397 28.1969 26.1876 27.901 26.6314C27.6958 26.9387 27.0979 27.6356 26.9177 27.8418C26.7354 28.0449 26.5542 28.0606 26.2448 27.9199C25.9323 27.7637 24.9292 27.4356 23.7417 26.3731C22.8167 25.5449 22.1958 24.5293 22.0125 24.2168C21.7073 23.6897 22.3458 23.6147 22.9271 22.5147C23.0312 22.296 22.9781 22.1241 22.901 21.9689C22.8229 21.8126 22.201 20.2814 21.9406 19.671C21.6906 19.0626 21.4333 19.1397 21.2406 19.1397C20.6406 19.0876 20.2021 19.096 19.8156 19.4981C18.1344 21.346 18.5583 23.2522 19.9969 25.2793C22.8239 28.9793 24.3302 29.6606 27.0844 30.6064C27.8281 30.8428 28.5062 30.8095 29.0427 30.7324C29.6406 30.6376 30.8833 29.9814 31.1427 29.247C31.4083 28.5126 31.4083 27.9033 31.3302 27.7626C31.2531 27.622 31.0489 27.5439 30.7364 27.4033Z" fill="#1E1E1E"/>
<path d="M33.875 16.0922C25.8656 8.34947 12.6104 13.9651 12.6052 24.888C12.6052 27.0713 13.1771 29.2005 14.2667 31.0807L12.5 37.4995L19.099 35.7786C27.3333 40.2266 37.4958 34.3203 37.5 24.8943C37.5 21.5859 36.2083 18.4724 33.8594 16.1328L33.875 16.0922ZM35.4188 24.8599C35.4125 32.8109 26.6844 37.7766 19.7812 33.7182L19.4062 33.4953L15.5 34.5109L16.5469 30.7141L16.2979 30.3234C12.0021 23.4849 16.9375 14.5474 25.075 14.5474C27.8396 14.5474 30.4344 15.6255 32.3885 17.5786C34.3417 19.5151 35.4188 22.1099 35.4188 24.8599Z" fill="#1E1E1E"/>
</g>
<defs>
<clipPath id="clip0_18:312">
<rect width="25" height="25" fill="white" transform="translate(12.5 12.5)"/>
</clipPath>
</defs>
</svg>
